<svg width="255" height="92" viewBox="0 0 255 92" fill="none" xmlns="http://www.w3.org/2000/svg">
<g clip-path="url(#clip0_1565_85)">
<path d="M9.33949 10.4531C9.2732 9.83286 8.99384 9.34991 8.50142 9.00426C8.01373 8.65862 7.37926 8.4858 6.59801 8.4858C6.04877 8.4858 5.57765 8.56866 5.18466 8.73438C4.79167 8.90009 4.491 9.125 4.28267 9.40909C4.07434 9.69318 3.9678 10.0175 3.96307 10.3821C3.96307 10.6851 4.03172 10.9479 4.16903 11.1705C4.31108 11.393 4.50284 11.5824 4.74432 11.7386C4.9858 11.8902 5.25331 12.018 5.54688 12.1222C5.84044 12.2263 6.13636 12.3139 6.43466 12.3849L7.7983 12.7259C8.34754 12.8537 8.87547 13.0265 9.3821 13.2443C9.89347 13.4621 10.3504 13.7367 10.7528 14.0682C11.16 14.3996 11.482 14.7997 11.7188 15.2685C11.9555 15.7372 12.0739 16.2865 12.0739 16.9162C12.0739 17.7685 11.8561 18.5189 11.4205 19.1676C10.9848 19.8116 10.3551 20.3158 9.53125 20.6804C8.71212 21.0402 7.72017 21.2202 6.5554 21.2202C5.42377 21.2202 4.44129 21.045 3.60795 20.6946C2.77936 20.3442 2.13068 19.8329 1.66193 19.1605C1.19792 18.4882 0.94697 17.669 0.909091 16.7031H3.50142C3.5393 17.2098 3.69555 17.6312 3.97017 17.9673C4.24479 18.3035 4.60227 18.5545 5.04261 18.7202C5.48769 18.8859 5.98485 18.9688 6.53409 18.9688C7.10701 18.9688 7.6089 18.8835 8.03977 18.7131C8.47538 18.5379 8.81629 18.2964 9.0625 17.9886C9.30871 17.6761 9.43419 17.3116 9.43892 16.8949C9.43419 16.5161 9.32292 16.2036 9.10511 15.9574C8.88731 15.7064 8.58191 15.4981 8.18892 15.3324C7.80066 15.1619 7.34612 15.0104 6.82528 14.8778L5.17045 14.4517C3.97254 14.1439 3.02557 13.6776 2.32955 13.0526C1.63826 12.4228 1.29261 11.5871 1.29261 10.5455C1.29261 9.68845 1.52462 8.93797 1.98864 8.29403C2.45739 7.65009 3.09422 7.15057 3.89915 6.79545C4.70407 6.43561 5.61553 6.25568 6.63352 6.25568C7.66572 6.25568 8.57008 6.43561 9.34659 6.79545C10.1278 7.15057 10.741 7.64536 11.1861 8.27983C11.6312 8.90956 11.8608 9.634 11.875 10.4531H9.33949ZM19.7567 10.0909V12.0795H13.4854V10.0909H19.7567ZM15.0337 7.47727H17.6048V17.7188C17.6048 18.0644 17.6568 18.3295 17.761 18.5142C17.8699 18.6941 18.012 18.8172 18.1871 18.8835C18.3623 18.9498 18.5565 18.983 18.7695 18.983C18.9305 18.983 19.0773 18.9711 19.2099 18.9474C19.3472 18.9238 19.4513 18.9025 19.5224 18.8835L19.9556 20.8935C19.8183 20.9408 19.6218 20.9929 19.3661 21.0497C19.1152 21.1065 18.8074 21.1397 18.4428 21.1491C17.7989 21.1681 17.2189 21.071 16.7028 20.858C16.1867 20.6402 15.7771 20.304 15.4741 19.8494C15.1758 19.3949 15.029 18.8267 15.0337 18.1449V7.47727ZM25.0462 21.2202C24.3549 21.2202 23.7322 21.0971 23.1783 20.8509C22.629 20.5999 22.1934 20.2306 21.8714 19.7429C21.5542 19.2552 21.3956 18.6539 21.3956 17.9389C21.3956 17.3234 21.5092 16.8144 21.7365 16.4119C21.9638 16.0095 22.2739 15.6875 22.6669 15.446C23.0599 15.2045 23.5026 15.0223 23.995 14.8991C24.4922 14.7713 25.0059 14.679 25.5362 14.6222C26.1754 14.5559 26.6939 14.4967 27.0916 14.4446C27.4893 14.3878 27.7782 14.3026 27.9581 14.1889C28.1428 14.0705 28.2351 13.8883 28.2351 13.642V13.5994C28.2351 13.0644 28.0765 12.6501 27.7592 12.3565C27.442 12.063 26.9851 11.9162 26.3885 11.9162C25.7588 11.9162 25.2592 12.0535 24.8899 12.3281C24.5253 12.6027 24.2791 12.9271 24.1513 13.3011L21.7507 12.9602C21.9401 12.2973 22.2526 11.7434 22.6882 11.2983C23.1238 10.8485 23.6565 10.5123 24.2862 10.2898C24.916 10.0625 25.612 9.94886 26.3743 9.94886C26.8999 9.94886 27.4231 10.0104 27.9439 10.1335C28.4647 10.2566 28.9406 10.4602 29.3714 10.7443C29.8023 11.0237 30.148 11.4048 30.4084 11.8878C30.6735 12.3707 30.8061 12.9744 30.8061 13.6989V21H28.3345V19.5014H28.2493C28.093 19.8045 27.8729 20.0885 27.5888 20.3537C27.3094 20.6141 26.9567 20.8248 26.5305 20.9858C26.1091 21.142 25.6143 21.2202 25.0462 21.2202ZM25.7138 19.331C26.2299 19.331 26.6773 19.2292 27.0561 19.0256C27.4349 18.8172 27.7261 18.5426 27.9297 18.2017C28.138 17.8608 28.2422 17.4891 28.2422 17.0866V15.8011C28.1617 15.8674 28.0244 15.929 27.8303 15.9858C27.6409 16.0426 27.4278 16.0923 27.1911 16.1349C26.9543 16.1776 26.7199 16.2154 26.4879 16.2486C26.2559 16.2817 26.0547 16.3101 25.8842 16.3338C25.5007 16.3859 25.1574 16.4711 24.8544 16.5895C24.5514 16.7079 24.3123 16.8736 24.1371 17.0866C23.9619 17.295 23.8743 17.5649 23.8743 17.8963C23.8743 18.3698 24.0471 18.7273 24.3928 18.9688C24.7384 19.2102 25.1787 19.331 25.7138 19.331ZM34.5987 25.0909C34.2483 25.0909 33.924 25.0625 33.6257 25.0057C33.3321 24.9536 33.0978 24.892 32.9226 24.821L33.5192 22.8182C33.8932 22.9271 34.227 22.9792 34.5206 22.9744C34.8142 22.9697 35.0722 22.8774 35.2947 22.6974C35.522 22.5223 35.7138 22.2287 35.87 21.8168L36.0902 21.2273L32.1342 10.0909H34.8615L37.3757 18.3295H37.4893L40.0107 10.0909H42.745L38.3771 22.321C38.1735 22.8987 37.9036 23.3935 37.5675 23.8054C37.2313 24.2221 36.8194 24.5393 36.3317 24.7571C35.8487 24.9796 35.2711 25.0909 34.5987 25.0909ZM56.4382 16.4119V10.0909H59.0092V21H56.5163V19.0611H56.4027C56.1565 19.6719 55.7517 20.1714 55.1882 20.5597C54.6295 20.9479 53.9406 21.142 53.1214 21.142C52.4065 21.142 51.7744 20.9834 51.2251 20.6662C50.6806 20.3442 50.2545 19.8778 49.9467 19.267C49.639 18.6515 49.4851 17.9081 49.4851 17.0369V10.0909H52.0561V16.6392C52.0561 17.3305 52.2455 17.8797 52.6243 18.2869C53.0031 18.6941 53.5002 18.8977 54.1158 18.8977C54.4946 18.8977 54.8615 18.8054 55.2166 18.6207C55.5717 18.4361 55.8629 18.1615 56.0902 17.7969C56.3222 17.4276 56.4382 16.9659 56.4382 16.4119ZM61.6531 25.0909V10.0909H64.1815V11.8949H64.3306C64.4632 11.6297 64.6502 11.348 64.8917 11.0497C65.1332 10.7467 65.4599 10.4886 65.8718 10.2756C66.2837 10.0578 66.8093 9.94886 67.4485 9.94886C68.2913 9.94886 69.0513 10.1643 69.7283 10.5952C70.4102 11.0213 70.9499 11.6534 71.3477 12.4915C71.7501 13.3248 71.9513 14.3475 71.9513 15.5597C71.9513 16.7576 71.7549 17.7756 71.3619 18.6136C70.9689 19.4517 70.4338 20.0909 69.7567 20.5312C69.0797 20.9716 68.3126 21.1918 67.4556 21.1918C66.8306 21.1918 66.3121 21.0876 65.9002 20.8793C65.4883 20.6709 65.1568 20.42 64.9059 20.1264C64.6597 19.8281 64.4679 19.5464 64.3306 19.2812H64.2241V25.0909H61.6531ZM64.1744 15.5455C64.1744 16.2509 64.2738 16.8688 64.4727 17.3991C64.6763 17.9295 64.9674 18.3437 65.3462 18.642C65.7298 18.9356 66.1938 19.0824 66.7383 19.0824C67.3065 19.0824 67.7823 18.9309 68.1658 18.6278C68.5494 18.3201 68.8382 17.901 69.0323 17.3707C69.2312 16.8357 69.3306 16.2273 69.3306 15.5455C69.3306 14.8684 69.2335 14.267 69.0394 13.7415C68.8453 13.2159 68.5565 12.804 68.1729 12.5057C67.7894 12.2074 67.3112 12.0582 66.7383 12.0582C66.189 12.0582 65.7227 12.2027 65.3391 12.4915C64.9556 12.7803 64.6644 13.1851 64.4656 13.706C64.2714 14.2268 64.1744 14.84 64.1744 15.5455ZM84.5614 10.0909V12.0795H78.2901V10.0909H84.5614ZM79.8384 7.47727H82.4094V17.7188C82.4094 18.0644 82.4615 18.3295 82.5657 18.5142C82.6746 18.6941 82.8166 18.8172 82.9918 18.8835C83.167 18.9498 83.3612 18.983 83.5742 18.983C83.7352 18.983 83.882 18.9711 84.0146 18.9474C84.1519 18.9238 84.256 18.9025 84.3271 18.8835L84.7603 20.8935C84.623 20.9408 84.4265 20.9929 84.1708 21.0497C83.9199 21.1065 83.6121 21.1397 83.2475 21.1491C82.6036 21.1681 82.0236 21.071 81.5075 20.858C80.9914 20.6402 80.5818 20.304 80.2788 19.8494C79.9805 19.3949 79.8337 18.8267 79.8384 18.1449V7.47727ZM91.353 21.2131C90.2876 21.2131 89.3643 20.9787 88.5831 20.5099C87.8018 20.0412 87.1958 19.3854 86.7649 18.5426C86.3388 17.6998 86.1257 16.715 86.1257 15.5881C86.1257 14.4612 86.3388 13.474 86.7649 12.6264C87.1958 11.7789 87.8018 11.1207 88.5831 10.652C89.3643 10.1832 90.2876 9.94886 91.353 9.94886C92.4183 9.94886 93.3416 10.1832 94.1229 10.652C94.9041 11.1207 95.5078 11.7789 95.9339 12.6264C96.3648 13.474 96.5803 14.4612 96.5803 15.5881C96.5803 16.715 96.3648 17.6998 95.9339 18.5426C95.5078 19.3854 94.9041 20.0412 94.1229 20.5099C93.3416 20.9787 92.4183 21.2131 91.353 21.2131ZM91.3672 19.1534C91.9448 19.1534 92.4278 18.9948 92.8161 18.6776C93.2043 18.3556 93.4931 17.9247 93.6825 17.3849C93.8767 16.8452 93.9737 16.2438 93.9737 15.581C93.9737 14.9134 93.8767 14.3097 93.6825 13.7699C93.4931 13.2254 93.2043 12.7921 92.8161 12.4702C92.4278 12.1482 91.9448 11.9872 91.3672 11.9872C90.7753 11.9872 90.2829 12.1482 89.8899 12.4702C89.5017 12.7921 89.2105 13.2254 89.0163 13.7699C88.8269 14.3097 88.7322 14.9134 88.7322 15.581C88.7322 16.2438 88.8269 16.8452 89.0163 17.3849C89.2105 17.9247 89.5017 18.3556 89.8899 18.6776C90.2829 18.9948 90.7753 19.1534 91.3672 19.1534ZM107.772 21.1918C106.915 21.1918 106.148 20.9716 105.471 20.5312C104.793 20.0909 104.258 19.4517 103.865 18.6136C103.472 17.7756 103.276 16.7576 103.276 15.5597C103.276 14.3475 103.475 13.3248 103.873 12.4915C104.275 11.6534 104.817 11.0213 105.499 10.5952C106.181 10.1643 106.941 9.94886 107.779 9.94886C108.418 9.94886 108.944 10.0578 109.355 10.2756C109.767 10.4886 110.094 10.7467 110.336 11.0497C110.577 11.348 110.764 11.6297 110.897 11.8949H111.003V6.45455H113.581V21H111.053V19.2812H110.897C110.764 19.5464 110.572 19.8281 110.321 20.1264C110.07 20.42 109.739 20.6709 109.327 20.8793C108.915 21.0876 108.397 21.1918 107.772 21.1918ZM108.489 19.0824C109.033 19.0824 109.498 18.9356 109.881 18.642C110.265 18.3437 110.556 17.9295 110.755 17.3991C110.953 16.8688 111.053 16.2509 111.053 15.5455C111.053 14.84 110.953 14.2268 110.755 13.706C110.56 13.1851 110.272 12.7803 109.888 12.4915C109.509 12.2027 109.043 12.0582 108.489 12.0582C107.916 12.0582 107.438 12.2074 107.054 12.5057C106.671 12.804 106.382 13.2159 106.188 13.7415C105.994 14.267 105.897 14.8684 105.897 15.5455C105.897 16.2273 105.994 16.8357 106.188 17.3707C106.387 17.901 106.678 18.3201 107.061 18.6278C107.45 18.9309 107.926 19.0824 108.489 19.0824ZM119.46 21.2202C118.769 21.2202 118.146 21.0971 117.592 20.8509C117.043 20.5999 116.607 20.2306 116.286 19.7429C115.968 19.2552 115.81 18.6539 115.81 17.9389C115.81 17.3234 115.923 16.8144 116.151 16.4119C116.378 16.0095 116.688 15.6875 117.081 15.446C117.474 15.2045 117.917 15.0223 118.409 14.8991C118.906 14.7713 119.42 14.679 119.95 14.6222C120.589 14.5559 121.108 14.4967 121.506 14.4446C121.903 14.3878 122.192 14.3026 122.372 14.1889C122.557 14.0705 122.649 13.8883 122.649 13.642V13.5994C122.649 13.0644 122.491 12.6501 122.173 12.3565C121.856 12.063 121.399 11.9162 120.803 11.9162C120.173 11.9162 119.673 12.0535 119.304 12.3281C118.939 12.6027 118.693 12.9271 118.565 13.3011L116.165 12.9602C116.354 12.2973 116.667 11.7434 117.102 11.2983C117.538 10.8485 118.071 10.5123 118.7 10.2898C119.33 10.0625 120.026 9.94886 120.788 9.94886C121.314 9.94886 121.837 10.0104 122.358 10.1335C122.879 10.2566 123.355 10.4602 123.786 10.7443C124.216 11.0237 124.562 11.4048 124.822 11.8878C125.088 12.3707 125.22 12.9744 125.22 13.6989V21H122.749V19.5014H122.663C122.507 19.8045 122.287 20.0885 122.003 20.3537C121.723 20.6141 121.371 20.8248 120.945 20.9858C120.523 21.142 120.028 21.2202 119.46 21.2202ZM120.128 19.331C120.644 19.331 121.091 19.2292 121.47 19.0256C121.849 18.8172 122.14 18.5426 122.344 18.2017C122.552 17.8608 122.656 17.4891 122.656 17.0866V15.8011C122.576 15.8674 122.438 15.929 122.244 15.9858C122.055 16.0426 121.842 16.0923 121.605 16.1349C121.368 16.1776 121.134 16.2154 120.902 16.2486C120.67 16.2817 120.469 16.3101 120.298 16.3338C119.915 16.3859 119.571 16.4711 119.268 16.5895C118.965 16.7079 118.726 16.8736 118.551 17.0866C118.376 17.295 118.288 17.5649 118.288 17.8963C118.288 18.3698 118.461 18.7273 118.807 18.9688C119.152 19.2102 119.593 19.331 120.128 19.331ZM133.253 10.0909V12.0795H126.982V10.0909H133.253ZM128.53 7.47727H131.101V17.7188C131.101 18.0644 131.153 18.3295 131.257 18.5142C131.366 18.6941 131.508 18.8172 131.683 18.8835C131.858 18.9498 132.053 18.983 132.266 18.983C132.427 18.983 132.573 18.9711 132.706 18.9474C132.843 18.9238 132.947 18.9025 133.018 18.8835L133.452 20.8935C133.314 20.9408 133.118 20.9929 132.862 21.0497C132.611 21.1065 132.304 21.1397 131.939 21.1491C131.295 21.1681 130.715 21.071 130.199 20.858C129.683 20.6402 129.273 20.304 128.97 19.8494C128.672 19.3949 128.525 18.8267 128.53 18.1449V7.47727ZM140.115 21.2131C139.022 21.2131 138.077 20.9858 137.282 20.5312C136.491 20.072 135.882 19.4233 135.456 18.5852C135.03 17.7424 134.817 16.7505 134.817 15.6094C134.817 14.4872 135.03 13.5024 135.456 12.6548C135.887 11.8026 136.489 11.1397 137.26 10.6662C138.032 10.188 138.939 9.94886 139.98 9.94886C140.653 9.94886 141.287 10.0578 141.884 10.2756C142.485 10.4886 143.016 10.8201 143.475 11.2699C143.939 11.7197 144.303 12.2926 144.569 12.9886C144.834 13.6799 144.966 14.5038 144.966 15.4602V16.2486H136.025V14.5156H142.502C142.497 14.0232 142.391 13.5852 142.182 13.2017C141.974 12.8134 141.683 12.508 141.309 12.2855C140.939 12.063 140.508 11.9517 140.016 11.9517C139.49 11.9517 139.029 12.0795 138.631 12.3352C138.233 12.5862 137.923 12.9176 137.701 13.3295C137.483 13.7367 137.372 14.1842 137.367 14.6719V16.1847C137.367 16.8191 137.483 17.3636 137.715 17.8182C137.947 18.268 138.271 18.6136 138.688 18.8551C139.105 19.0919 139.592 19.2102 140.151 19.2102C140.525 19.2102 140.864 19.1581 141.167 19.054C141.47 18.9451 141.732 18.7865 141.955 18.5781C142.177 18.3698 142.346 18.1117 142.459 17.804L144.86 18.0739C144.708 18.7083 144.419 19.2623 143.993 19.7358C143.572 20.2045 143.032 20.5691 142.374 20.8295C141.716 21.0852 140.963 21.2131 140.115 21.2131Z" fill="white"/>
<rect opacity="0.2" y="52" width="255" height="40" rx="8" fill="white"/>
<g clip-path="url(#clip1_1565_85)">
<path fill-rule="evenodd" clip-rule="evenodd" d="M242.03 63.9697C242.234 64.1734 242.303 64.4758 242.208 64.7478L236.958 79.7478C236.856 80.038 236.588 80.2369 236.281 80.2494C235.973 80.2619 235.69 80.0856 235.565 79.8046L232.682 73.3182L226.195 70.4354C225.914 70.3105 225.738 70.0267 225.751 69.7194C225.763 69.4122 225.962 69.1437 226.252 69.0421L241.252 63.7921C241.524 63.6969 241.827 63.766 242.03 63.9697ZM234.145 72.9161L236.167 77.4667L239.706 67.3543L234.145 72.9161ZM238.646 66.2936L228.533 69.833L233.084 71.8555L238.646 66.2936Z" fill="white"/>
</g>
<path d="M12.358 65.8182H13.7699L16.5938 70.571H16.7131L19.5369 65.8182H20.9489L17.2699 71.804V76H16.0369V71.804L12.358 65.8182ZM24.4066 76.1591C23.7172 76.1591 23.1123 75.995 22.592 75.6669C22.0749 75.3388 21.6706 74.8797 21.3789 74.2898C21.0906 73.6998 20.9464 73.0104 20.9464 72.2216C20.9464 71.4261 21.0906 70.7318 21.3789 70.1385C21.6706 69.5452 22.0749 69.0845 22.592 68.7564C23.1123 68.4283 23.7172 68.2642 24.4066 68.2642C25.096 68.2642 25.6992 68.4283 26.2163 68.7564C26.7366 69.0845 27.141 69.5452 27.4293 70.1385C27.721 70.7318 27.8668 71.4261 27.8668 72.2216C27.8668 73.0104 27.721 73.6998 27.4293 74.2898C27.141 74.8797 26.7366 75.3388 26.2163 75.6669C25.6992 75.995 25.096 76.1591 24.4066 76.1591ZM24.4066 75.1051C24.9303 75.1051 25.3612 74.9709 25.6992 74.7024C26.0373 74.4339 26.2875 74.081 26.4499 73.6435C26.6123 73.206 26.6935 72.732 26.6935 72.2216C26.6935 71.7112 26.6123 71.2356 26.4499 70.7947C26.2875 70.3539 26.0373 69.9976 25.6992 69.7259C25.3612 69.4541 24.9303 69.3182 24.4066 69.3182C23.8829 69.3182 23.4521 69.4541 23.114 69.7259C22.7759 69.9976 22.5257 70.3539 22.3633 70.7947C22.2009 71.2356 22.1197 71.7112 22.1197 72.2216C22.1197 72.732 22.2009 73.206 22.3633 73.6435C22.5257 74.081 22.7759 74.4339 23.114 74.7024C23.4521 74.9709 23.8829 75.1051 24.4066 75.1051ZM34.4703 72.8778V68.3636H35.6436V76H34.4703V74.7074H34.3908C34.2118 75.0952 33.9334 75.425 33.5556 75.6967C33.1777 75.9652 32.7005 76.0994 32.1238 76.0994C31.6465 76.0994 31.2222 75.995 30.851 75.7862C30.4798 75.5741 30.1882 75.2559 29.976 74.8317C29.7639 74.4041 29.6578 73.8655 29.6578 73.2159V68.3636H30.8311V73.1364C30.8311 73.6932 30.9869 74.1373 31.2985 74.4688C31.6133 74.8002 32.0144 74.9659 32.5016 74.9659C32.7933 74.9659 33.0899 74.8913 33.3915 74.7422C33.6964 74.593 33.9516 74.3643 34.1571 74.0561C34.3659 73.7479 34.4703 73.3551 34.4703 72.8778ZM37.7926 76V68.3636H38.9261V69.517H39.0057C39.1449 69.1392 39.3968 68.8326 39.7614 68.5973C40.1259 68.362 40.5369 68.2443 40.9943 68.2443C41.0805 68.2443 41.1882 68.246 41.3175 68.2493C41.4467 68.2526 41.5445 68.2576 41.6108 68.2642V69.4574C41.571 69.4474 41.4799 69.4325 41.3374 69.4126C41.1982 69.3894 41.0507 69.3778 40.8949 69.3778C40.5237 69.3778 40.1922 69.4557 39.9006 69.6115C39.6122 69.764 39.3835 69.9761 39.2145 70.2479C39.0488 70.5163 38.9659 70.8229 38.9659 71.1676V76H37.7926ZM50.1408 76.1591C49.405 76.1591 48.7703 75.9967 48.2367 75.6719C47.7064 75.3438 47.2971 74.8864 47.0087 74.2997C46.7237 73.7098 46.5811 73.0237 46.5811 72.2415C46.5811 71.4593 46.7237 70.7699 47.0087 70.1733C47.2971 69.5734 47.6981 69.1061 48.2118 68.7713C48.7289 68.4332 49.3321 68.2642 50.0215 68.2642C50.4192 68.2642 50.812 68.3305 51.1998 68.4631C51.5875 68.5956 51.9405 68.8111 52.2587 69.1094C52.5769 69.4044 52.8304 69.7955 53.0194 70.2827C53.2083 70.7699 53.3027 71.3698 53.3027 72.0824V72.5795H47.4164V71.5653H52.1096C52.1096 71.1345 52.0234 70.75 51.851 70.4119C51.682 70.0739 51.44 69.8071 51.1252 69.6115C50.8136 69.416 50.4457 69.3182 50.0215 69.3182C49.5542 69.3182 49.1498 69.4342 48.8084 69.6662C48.4703 69.8949 48.2102 70.1932 48.0279 70.5611C47.8456 70.929 47.7544 71.3234 47.7544 71.7443V72.4205C47.7544 72.9972 47.8539 73.486 48.0527 73.8871C48.2549 74.2848 48.535 74.5881 48.8929 74.7969C49.2509 75.0024 49.6668 75.1051 50.1408 75.1051C50.449 75.1051 50.7275 75.062 50.976 74.9759C51.2279 74.8864 51.445 74.7538 51.6273 74.5781C51.8096 74.3991 51.9505 74.1771 52.0499 73.9119L53.1834 74.2301C53.0641 74.6146 52.8636 74.9527 52.5819 75.2443C52.3001 75.5327 51.9521 75.758 51.5378 75.9205C51.1235 76.0795 50.6578 76.1591 50.1408 76.1591ZM55.0875 76V68.3636H56.2211V69.5568H56.3205C56.4796 69.1491 56.7364 68.8326 57.0911 68.6072C57.4457 68.3786 57.8716 68.2642 58.3688 68.2642C58.8726 68.2642 59.2918 68.3786 59.6266 68.6072C59.9647 68.8326 60.2282 69.1491 60.4171 69.5568H60.4966C60.6922 69.1624 60.9855 68.8492 61.3766 68.6172C61.7677 68.3819 62.2367 68.2642 62.7836 68.2642C63.4663 68.2642 64.0248 68.478 64.459 68.9055C64.8932 69.3298 65.1103 69.991 65.1103 70.8892V76H63.937V70.8892C63.937 70.3258 63.7828 69.9231 63.4746 69.6811C63.1664 69.4392 62.8034 69.3182 62.3858 69.3182C61.8489 69.3182 61.4329 69.4806 61.138 69.8054C60.843 70.1269 60.6955 70.5346 60.6955 71.0284V76H59.5023V70.7699C59.5023 70.3357 59.3614 69.986 59.0797 69.7209C58.798 69.4524 58.4351 69.3182 57.9909 69.3182C57.686 69.3182 57.401 69.3994 57.1358 69.5618C56.874 69.7242 56.6619 69.9496 56.4995 70.2379C56.3404 70.523 56.2608 70.8527 56.2608 71.2273V76H55.0875ZM69.5027 76.179C69.0188 76.179 68.5796 76.0878 68.1852 75.9055C67.7908 75.7199 67.4776 75.4531 67.2456 75.1051C67.0136 74.7538 66.8975 74.3295 66.8975 73.8324C66.8975 73.3949 66.9837 73.0402 67.1561 72.7685C67.3284 72.4934 67.5588 72.2779 67.8471 72.1222C68.1355 71.9664 68.4537 71.8504 68.8017 71.7741C69.153 71.6946 69.506 71.6316 69.8606 71.5852C70.3246 71.5256 70.7008 71.4808 70.9892 71.451C71.2808 71.4179 71.493 71.3632 71.6255 71.2869C71.7614 71.2107 71.8294 71.0781 71.8294 70.8892V70.8494C71.8294 70.3589 71.6951 69.9777 71.4267 69.706C71.1615 69.4342 70.7588 69.2983 70.2186 69.2983C69.6584 69.2983 69.2193 69.4209 68.9011 69.6662C68.5829 69.9115 68.3592 70.1733 68.2299 70.4517L67.1163 70.054C67.3152 69.59 67.5803 69.2287 67.9118 68.9702C68.2465 68.7083 68.6111 68.526 69.0055 68.4233C69.4032 68.3172 69.7943 68.2642 70.1788 68.2642C70.4241 68.2642 70.7058 68.294 71.024 68.3537C71.3455 68.41 71.6554 68.5277 71.9537 68.7067C72.2553 68.8857 72.5055 69.1558 72.7044 69.517C72.9032 69.8783 73.0027 70.3622 73.0027 70.9688V76H71.8294V74.9659H71.7697C71.6902 75.1316 71.5576 75.3089 71.372 75.4979C71.1864 75.6868 70.9395 75.8475 70.6312 75.9801C70.323 76.1127 69.9468 76.179 69.5027 76.179ZM69.6816 75.125C70.1457 75.125 70.5368 75.0339 70.8549 74.8516C71.1764 74.6693 71.4184 74.4339 71.5808 74.1456C71.7465 73.8572 71.8294 73.554 71.8294 73.2358V72.1619C71.7797 72.2216 71.6703 72.2763 71.5012 72.326C71.3355 72.3724 71.1433 72.4138 70.9245 72.4503C70.7091 72.4834 70.4986 72.5133 70.2931 72.5398C70.091 72.563 69.9269 72.5829 69.801 72.5994C69.496 72.6392 69.211 72.7038 68.9458 72.7933C68.684 72.8795 68.4719 73.0104 68.3095 73.1861C68.1504 73.3584 68.0708 73.5937 68.0708 73.892C68.0708 74.2997 68.2217 74.608 68.5233 74.8168C68.8282 75.0223 69.2143 75.125 69.6816 75.125ZM75.1442 76V68.3636H76.3175V76H75.1442ZM75.7408 67.0909C75.5121 67.0909 75.3149 67.013 75.1491 66.8572C74.9867 66.7015 74.9055 66.5142 74.9055 66.2955C74.9055 66.0767 74.9867 65.8894 75.1491 65.7337C75.3149 65.5779 75.5121 65.5 75.7408 65.5C75.9695 65.5 76.165 65.5779 76.3274 65.7337C76.4931 65.8894 76.576 66.0767 76.576 66.2955C76.576 66.5142 76.4931 66.7015 76.3274 66.8572C76.165 67.013 75.9695 67.0909 75.7408 67.0909ZM79.6397 65.8182V76H78.4664V65.8182H79.6397ZM87.9734 76.179C87.4895 76.179 87.0503 76.0878 86.6559 75.9055C86.2615 75.7199 85.9483 75.4531 85.7163 75.1051C85.4843 74.7538 85.3683 74.3295 85.3683 73.8324C85.3683 73.3949 85.4544 73.0402 85.6268 72.7685C85.7991 72.4934 86.0295 72.2779 86.3178 72.1222C86.6062 71.9664 86.9244 71.8504 87.2724 71.7741C87.6237 71.6946 87.9767 71.6316 88.3313 71.5852C88.7953 71.5256 89.1715 71.4808 89.4599 71.451C89.7515 71.4179 89.9637 71.3632 90.0962 71.2869C90.2321 71.2107 90.3001 71.0781 90.3001 70.8892V70.8494C90.3001 70.3589 90.1658 69.9777 89.8974 69.706C89.6322 69.4342 89.2295 69.2983 88.6893 69.2983C88.1291 69.2983 87.69 69.4209 87.3718 69.6662C87.0536 69.9115 86.8299 70.1733 86.7006 70.4517L85.587 70.054C85.7859 69.59 86.051 69.2287 86.3825 68.9702C86.7172 68.7083 87.0818 68.526 87.4762 68.4233C87.8739 68.3172 88.265 68.2642 88.6495 68.2642C88.8948 68.2642 89.1765 68.294 89.4947 68.3537C89.8162 68.41 90.1261 68.5277 90.4244 68.7067C90.726 68.8857 90.9762 69.1558 91.1751 69.517C91.3739 69.8783 91.4734 70.3622 91.4734 70.9688V76H90.3001V74.9659H90.2404C90.1609 75.1316 90.0283 75.3089 89.8427 75.4979C89.6571 75.6868 89.4102 75.8475 89.1019 75.9801C88.7937 76.1127 88.4175 76.179 87.9734 76.179ZM88.1523 75.125C88.6164 75.125 89.0075 75.0339 89.3256 74.8516C89.6471 74.6693 89.8891 74.4339 90.0515 74.1456C90.2172 73.8572 90.3001 73.554 90.3001 73.2358V72.1619C90.2504 72.2216 90.141 72.2763 89.9719 72.326C89.8062 72.3724 89.614 72.4138 89.3952 72.4503C89.1798 72.4834 88.9693 72.5133 88.7638 72.5398C88.5617 72.563 88.3976 72.5829 88.2717 72.5994C87.9667 72.6392 87.6817 72.7038 87.4165 72.7933C87.1547 72.8795 86.9426 73.0104 86.7802 73.1861C86.6211 73.3584 86.5415 73.5937 86.5415 73.892C86.5415 74.2997 86.6924 74.608 86.994 74.8168C87.2989 75.0223 87.685 75.125 88.1523 75.125ZM96.4984 76.1591C95.862 76.1591 95.3002 75.9983 94.813 75.6768C94.3258 75.352 93.9447 74.8946 93.6696 74.3047C93.3945 73.7114 93.2569 73.0104 93.2569 72.2017C93.2569 71.3996 93.3945 70.7036 93.6696 70.1136C93.9447 69.5237 94.3275 69.0679 94.818 68.7464C95.3085 68.425 95.8753 68.2642 96.5183 68.2642C97.0154 68.2642 97.4082 68.3471 97.6966 68.5128C97.9882 68.6752 98.2103 68.8608 98.3627 69.0696C98.5185 69.2751 98.6395 69.4441 98.7257 69.5767H98.8251V65.8182H99.9984V76H98.8649V74.8267H98.7257C98.6395 74.9659 98.5169 75.1416 98.3578 75.3537C98.1987 75.5625 97.9717 75.7498 97.6767 75.9155C97.3817 76.0779 96.9889 76.1591 96.4984 76.1591ZM96.6575 75.1051C97.1281 75.1051 97.5259 74.9825 97.8507 74.7372C98.1755 74.4886 98.4224 74.1456 98.5914 73.7081C98.7605 73.2673 98.845 72.7585 98.845 72.1818C98.845 71.6117 98.7621 71.1129 98.5964 70.6854C98.4307 70.2545 98.1854 69.9197 97.8606 69.6811C97.5358 69.4392 97.1348 69.3182 96.6575 69.3182C96.1603 69.3182 95.746 69.4458 95.4146 69.701C95.0865 69.9529 94.8395 70.2959 94.6738 70.7301C94.5114 71.161 94.4302 71.6449 94.4302 72.1818C94.4302 72.7254 94.5131 73.2192 94.6788 73.6634C94.8478 74.1042 95.0964 74.4555 95.4245 74.7173C95.756 74.9759 96.167 75.1051 96.6575 75.1051ZM105.194 76.1591C104.557 76.1591 103.996 75.9983 103.508 75.6768C103.021 75.352 102.64 74.8946 102.365 74.3047C102.09 73.7114 101.952 73.0104 101.952 72.2017C101.952 71.3996 102.09 70.7036 102.365 70.1136C102.64 69.5237 103.023 69.0679 103.513 68.7464C104.004 68.425 104.571 68.2642 105.214 68.2642C105.711 68.2642 106.104 68.3471 106.392 68.5128C106.684 68.6752 106.906 68.8608 107.058 69.0696C107.214 69.2751 107.335 69.4441 107.421 69.5767H107.52V65.8182H108.694V76H107.56V74.8267H107.421C107.335 74.9659 107.212 75.1416 107.053 75.3537C106.894 75.5625 106.667 75.7498 106.372 75.9155C106.077 76.0779 105.684 76.1591 105.194 76.1591ZM105.353 75.1051C105.823 75.1051 106.221 74.9825 106.546 74.7372C106.871 74.4886 107.118 74.1456 107.287 73.7081C107.456 73.2673 107.54 72.7585 107.54 72.1818C107.54 71.6117 107.457 71.1129 107.292 70.6854C107.126 70.2545 106.881 69.9197 106.556 69.6811C106.231 69.4392 105.83 69.3182 105.353 69.3182C104.856 69.3182 104.441 69.4458 104.11 69.701C103.782 69.9529 103.535 70.2959 103.369 70.7301C103.207 71.161 103.126 71.6449 103.126 72.1818C103.126 72.7254 103.208 73.2192 103.374 73.6634C103.543 74.1042 103.792 74.4555 104.12 74.7173C104.451 74.9759 104.862 75.1051 105.353 75.1051ZM111.006 76V68.3636H112.139V69.517H112.219C112.358 69.1392 112.61 68.8326 112.974 68.5973C113.339 68.362 113.75 68.2443 114.207 68.2443C114.293 68.2443 114.401 68.246 114.53 68.2493C114.66 68.2526 114.757 68.2576 114.824 68.2642V69.4574C114.784 69.4474 114.693 69.4325 114.55 69.4126C114.411 69.3894 114.264 69.3778 114.108 69.3778C113.737 69.3778 113.405 69.4557 113.113 69.6115C112.825 69.764 112.596 69.9761 112.427 70.2479C112.262 70.5163 112.179 70.8229 112.179 71.1676V76H111.006ZM119.184 76.1591C118.448 76.1591 117.813 75.9967 117.28 75.6719C116.749 75.3438 116.34 74.8864 116.052 74.2997C115.767 73.7098 115.624 73.0237 115.624 72.2415C115.624 71.4593 115.767 70.7699 116.052 70.1733C116.34 69.5734 116.741 69.1061 117.255 68.7713C117.772 68.4332 118.375 68.2642 119.064 68.2642C119.462 68.2642 119.855 68.3305 120.243 68.4631C120.631 68.5956 120.983 68.8111 121.302 69.1094C121.62 69.4044 121.873 69.7955 122.062 70.2827C122.251 70.7699 122.346 71.3698 122.346 72.0824V72.5795H116.459V71.5653H121.153C121.153 71.1345 121.066 70.75 120.894 70.4119C120.725 70.0739 120.483 69.8071 120.168 69.6115C119.857 69.416 119.489 69.3182 119.064 69.3182C118.597 69.3182 118.193 69.4342 117.851 69.6662C117.513 69.8949 117.253 70.1932 117.071 70.5611C116.889 70.929 116.797 71.3234 116.797 71.7443V72.4205C116.797 72.9972 116.897 73.486 117.096 73.8871C117.298 74.2848 117.578 74.5881 117.936 74.7969C118.294 75.0024 118.71 75.1051 119.184 75.1051C119.492 75.1051 119.77 75.062 120.019 74.9759C120.271 74.8864 120.488 74.7538 120.67 74.5781C120.853 74.3991 120.993 74.1771 121.093 73.9119L122.226 74.2301C122.107 74.6146 121.907 74.9527 121.625 75.2443C121.343 75.5327 120.995 75.758 120.581 75.9205C120.166 76.0795 119.701 76.1591 119.184 76.1591ZM129.54 70.0739L128.486 70.3722C128.419 70.1965 128.322 70.0258 128.192 69.8601C128.066 69.6911 127.894 69.5518 127.675 69.4425C127.456 69.3331 127.176 69.2784 126.835 69.2784C126.368 69.2784 125.978 69.3861 125.667 69.6016C125.358 69.8137 125.204 70.0838 125.204 70.4119C125.204 70.7036 125.31 70.9339 125.523 71.103C125.735 71.272 126.066 71.4129 126.517 71.5256L127.65 71.804C128.333 71.9697 128.842 72.2232 129.177 72.5646C129.511 72.9027 129.679 73.3385 129.679 73.8722C129.679 74.3097 129.553 74.7008 129.301 75.0455C129.052 75.3902 128.704 75.6619 128.257 75.8608C127.809 76.0597 127.289 76.1591 126.696 76.1591C125.917 76.1591 125.272 75.9901 124.762 75.652C124.251 75.3139 123.928 74.8201 123.792 74.1705L124.906 73.892C125.012 74.303 125.213 74.6113 125.508 74.8168C125.806 75.0223 126.195 75.125 126.676 75.125C127.223 75.125 127.657 75.009 127.979 74.777C128.303 74.5417 128.466 74.2599 128.466 73.9318C128.466 73.6667 128.373 73.4446 128.187 73.2656C128.002 73.0833 127.717 72.9474 127.332 72.858L126.059 72.5597C125.36 72.3939 124.846 72.1371 124.518 71.7891C124.193 71.4377 124.031 70.9986 124.031 70.4716C124.031 70.0407 124.152 69.6596 124.394 69.3281C124.639 68.9967 124.972 68.7365 125.393 68.5476C125.818 68.3587 126.298 68.2642 126.835 68.2642C127.591 68.2642 128.184 68.4299 128.615 68.7614C129.049 69.0928 129.357 69.5303 129.54 70.0739ZM136.854 70.0739L135.8 70.3722C135.734 70.1965 135.636 70.0258 135.507 69.8601C135.381 69.6911 135.208 69.5518 134.99 69.4425C134.771 69.3331 134.491 69.2784 134.15 69.2784C133.682 69.2784 133.293 69.3861 132.981 69.6016C132.673 69.8137 132.519 70.0838 132.519 70.4119C132.519 70.7036 132.625 70.9339 132.837 71.103C133.049 71.272 133.381 71.4129 133.831 71.5256L134.965 71.804C135.648 71.9697 136.156 72.2232 136.491 72.5646C136.826 72.9027 136.993 73.3385 136.993 73.8722C136.993 74.3097 136.867 74.7008 136.615 75.0455C136.367 75.3902 136.019 75.6619 135.571 75.8608C135.124 76.0597 134.604 76.1591 134.01 76.1591C133.231 76.1591 132.587 75.9901 132.076 75.652C131.566 75.3139 131.243 74.8201 131.107 74.1705L132.221 73.892C132.327 74.303 132.527 74.6113 132.822 74.8168C133.12 75.0223 133.51 75.125 133.99 75.125C134.537 75.125 134.971 75.009 135.293 74.777C135.618 74.5417 135.78 74.2599 135.78 73.9318C135.78 73.6667 135.687 73.4446 135.502 73.2656C135.316 73.0833 135.031 72.9474 134.647 72.858L133.374 72.5597C132.675 72.3939 132.161 72.1371 131.833 71.7891C131.508 71.4377 131.346 70.9986 131.346 70.4716C131.346 70.0407 131.467 69.6596 131.708 69.3281C131.954 68.9967 132.287 68.7365 132.708 68.5476C133.132 68.3587 133.613 68.2642 134.15 68.2642C134.905 68.2642 135.498 68.4299 135.929 68.7614C136.364 69.0928 136.672 69.5303 136.854 70.0739Z" fill="#D9DBE1"/>
</g>
<defs>
<clipPath id="clip0_1565_85">
<rect width="255" height="92" fill="white"/>
</clipPath>
<clipPath id="clip1_1565_85">
<rect width="18" height="18" fill="white" transform="translate(225 63)"/>
</clipPath>
</defs>
</svg>
